<?xml version="1.0" encoding="UTF-8" standalone="no"?>
<svg
   xmlns:dc="http://purl.org/dc/elements/1.1/"
   xmlns:cc="http://creativecommons.org/ns#"
   xmlns:rdf="http://www.w3.org/1999/02/22-rdf-syntax-ns#"
   xmlns:svg="http://www.w3.org/2000/svg"
   xmlns="http://www.w3.org/2000/svg"
   viewBox="0 0 113.65333 96.41333"
   height="96.41333"
   width="113.65333"
   xml:space="preserve"
   id="svg2"
   version="1.1"><metadata
     id="metadata8"><rdf:RDF><cc:Work
         rdf:about=""><dc:format>image/svg+xml</dc:format><dc:type
           rdf:resource="http://purl.org/dc/dcmitype/StillImage" /></cc:Work></rdf:RDF></metadata><defs
     id="defs6" /><g
     transform="matrix(1.3333333,0,0,-1.3333333,0,96.413333)"
     id="g10"><g
       transform="scale(0.1)"
       id="g12"><path
         id="path14"
         style="fill:#2350a9;fill-opacity:1;fill-rule:nonzero;stroke:none"
         d="M 249.582,723.121 0.00390625,473.531 249.598,223.938 499.176,473.531 249.582,723.121" /><path
         id="path16"
         style="fill:#ffffff;fill-opacity:1;fill-rule:nonzero;stroke:none"
         d="m 316.594,438.988 h 11.304 c 11.903,0 22.36,0.614 30.004,8.274 6.075,5.902 9.407,15.426 9.407,26.836 0,8.031 -1.637,19.242 -9.391,27.015 -7.148,7.141 -18.645,7.141 -30.02,7.141 h -11.304 z m 6.433,-32.043 h -44.484 v 133.176 h 44.484 c 22.766,0 44.559,-1.195 61.039,-15.558 13.731,-11.993 21.297,-29.911 21.297,-50.465 0,-20.215 -7.574,-37.95 -21.297,-49.907 -19.789,-17.246 -44.605,-17.246 -61.039,-17.246" /><path
         id="path18"
         style="fill:#ffffff;fill-opacity:1;fill-rule:nonzero;stroke:none"
         d="m 258.383,406.938 h -35.395 v 78.218 l -23.754,-78.218 h -31.589 l -23.77,78.218 V 406.938 H 109.02 v 133.191 h 51.636 l 23.235,-77.832 23.214,77.832 h 51.278 V 406.938" /><path
         id="path20"
         style="fill:#231f20;fill-opacity:1;fill-rule:nonzero;stroke:none"
         d="m 313.859,120.602 v 53.867 L 295.523,120.602 H 281.93 l -18.332,53.867 v -53.867 h -13.907 v 69.832 h 21.731 l 17.512,-51.086 17.613,51.086 h 21.426 v -69.832 h -14.114" /><path
         id="path22"
         style="fill:#231f20;fill-opacity:1;fill-rule:nonzero;stroke:none"
         d="m 381.051,173.129 c -4.324,4.328 -10.199,4.738 -17.199,4.738 h -10.614 v -44.492 h 8.965 c 6.695,0 13.492,0 18.848,5.246 4.328,4.121 6.179,10.406 6.179,17.203 0,6.492 -1.75,12.875 -6.179,17.305 z m 11.019,-43.465 c -10.09,-9.062 -23.07,-9.062 -31.621,-9.062 h -22.453 v 69.832 h 22.453 c 11.434,0 22.973,-0.414 31.621,-8.137 7.207,-6.391 10.817,-15.758 10.817,-26.473 0,-10.609 -3.711,-19.879 -10.817,-26.16" /><path
         id="path24"
         style="fill:#231f20;fill-opacity:1;fill-rule:nonzero;stroke:none"
         d="m 456.672,177.66 v -16.582 h 32.551 v -12.566 h -32.551 v -27.91 H 441.43 v 69.832 h 50.468 V 177.66 h -35.226" /><path
         id="path26"
         style="fill:#231f20;fill-opacity:1;fill-rule:nonzero;stroke:none"
         d="m 498.957,120.602 v 49.539 h 14.418 v -49.539 z m 7.211,55.41 c -4.734,0 -8.141,3.402 -8.141,7.832 0,4.324 3.407,7.828 8.141,7.828 4.738,0 8.137,-3.504 8.137,-7.828 -0.106,-4.43 -3.297,-7.832 -8.137,-7.832" /><path
         id="path28"
         style="fill:#231f20;fill-opacity:1;fill-rule:nonzero;stroke:none"
         d="m 557.441,120.602 v 28.015 c 0,3.809 -0.203,7.313 -2.878,9.27 -1.344,1.133 -3.297,1.855 -6.18,1.855 -2.473,0 -5.461,-0.824 -7.524,-2.887 -2.988,-2.988 -2.988,-7.828 -2.988,-12.875 v -23.378 h -14.418 v 49.539 h 13.602 c 0,0 0.203,-5.868 0.203,-5.766 0.308,0.41 5.871,7.621 16.379,7.621 5.043,0 9.578,-1.336 13.488,-5.254 4.121,-4.121 4.738,-10.09 4.738,-15.652 v -30.488 h -14.422" /><path
         id="path30"
         style="fill:#231f20;fill-opacity:1;fill-rule:nonzero;stroke:none"
         d="m 610.445,142.438 h -7.418 c -4.836,0 -11.531,-0.52 -11.531,-6.903 0,-4.015 3.086,-6.078 7.309,-6.078 3.918,0 6.593,1.133 8.55,2.887 2.063,1.851 3.09,4.531 3.09,7.519 z m 1.032,-21.836 -0.309,5.355 c -1.75,-1.957 -6.801,-6.594 -15.965,-6.594 -8.961,0 -17.512,4.84 -17.512,15.657 0,4.632 1.653,7.929 4.02,10.296 5.254,5.254 12.051,6.286 18.539,6.286 h 10.195 v 1.031 c 0,6.285 -4.222,8.344 -9.886,8.344 -7.52,0 -13.184,-5.153 -14.008,-5.977 l -6.797,8.344 c 1.234,1.34 8.031,8.652 21.629,8.652 7.93,0 13.492,-1.855 17.301,-5.766 5.254,-5.253 5.668,-11.539 5.668,-20.085 v -25.543 h -12.875" /><path
         id="path32"
         style="fill:#231f20;fill-opacity:1;fill-rule:nonzero;stroke:none"
         d="m 666.949,120.602 v 28.015 c 0,3.809 -0.203,7.313 -2.879,9.27 -1.343,1.133 -3.297,1.855 -6.183,1.855 -2.469,0 -5.457,-0.824 -7.52,-2.887 -2.988,-2.988 -2.988,-7.828 -2.988,-12.875 v -23.378 h -14.418 v 49.539 h 13.598 c 0,0 0.207,-5.868 0.207,-5.766 0.304,0.41 5.867,7.621 16.375,7.621 5.047,0 9.582,-1.336 13.492,-5.254 4.121,-4.121 4.734,-10.09 4.734,-15.652 v -30.488 h -14.418" /><path
         id="path34"
         style="fill:#231f20;fill-opacity:1;fill-rule:nonzero;stroke:none"
         d="m 714.289,119.059 c -18.23,0 -27.398,12.152 -27.398,26.468 0,13.594 8.961,26.469 27.601,26.469 14.938,0 21.43,-9.062 21.942,-9.887 l -8.45,-7.621 c -0.921,0.926 -5.664,5.867 -12.871,5.867 -8.961,0 -13.386,-7.207 -13.386,-14.929 0,-7.832 4.324,-14.731 13.285,-14.731 7.828,0 12.152,4.946 13.285,6.282 l 8.441,-7.414 c -0.41,-0.719 -6.797,-10.504 -22.449,-10.504" /><path
         id="path36"
         style="fill:#231f20;fill-opacity:1;fill-rule:nonzero;stroke:none"
         d="m 742.262,120.602 v 49.539 h 14.422 v -49.539 z m 7.215,55.41 c -4.743,0 -8.141,3.402 -8.141,7.832 0,4.324 3.398,7.828 8.141,7.828 4.734,0 8.132,-3.504 8.132,-7.828 -0.101,-4.43 -3.296,-7.832 -8.132,-7.832" /><path
         id="path38"
         style="fill:#231f20;fill-opacity:1;fill-rule:nonzero;stroke:none"
         d="m 796.219,142.438 h -7.418 c -4.84,0 -11.531,-0.52 -11.531,-6.903 0,-4.015 3.085,-6.078 7.308,-6.078 3.914,0 6.59,1.133 8.551,2.887 2.059,1.851 3.09,4.531 3.09,7.519 z m 1.027,-21.836 -0.305,5.355 c -1.753,-1.957 -6.8,-6.594 -15.968,-6.594 -8.957,0 -17.508,4.84 -17.508,15.657 0,4.632 1.648,7.929 4.019,10.296 5.25,5.254 12.047,6.286 18.539,6.286 h 10.196 v 1.031 c 0,6.285 -4.227,8.344 -9.891,8.344 -7.515,0 -13.18,-5.153 -14.008,-5.977 l -6.797,8.344 c 1.239,1.34 8.036,8.652 21.633,8.652 7.93,0 13.492,-1.855 17.297,-5.766 5.258,-5.253 5.672,-11.539 5.672,-20.085 v -25.543 h -12.879" /><path
         id="path40"
         style="fill:#231f20;fill-opacity:1;fill-rule:nonzero;stroke:none"
         d="m 818.117,120.602 v 69.832 h 14.418 v -69.832 h -14.418" /><path
         id="path42"
         style="fill:#231f20;fill-opacity:1;fill-rule:nonzero;stroke:none"
         d="M 313.859,20.6016 V 74.4688 L 295.523,20.6016 H 281.93 L 263.598,74.4688 V 20.6016 h -13.907 v 69.832 h 21.731 l 17.512,-51.0859 17.613,51.0859 h 21.426 v -69.832 h -14.114" /><path
         id="path44"
         style="fill:#231f20;fill-opacity:1;fill-rule:nonzero;stroke:none"
         d="m 367.555,42.4375 h -7.414 c -4.84,0 -11.536,-0.5195 -11.536,-6.9023 0,-4.0157 3.086,-6.0782 7.309,-6.0782 3.918,0 6.594,1.1328 8.551,2.8868 2.058,1.8515 3.09,4.5312 3.09,7.5195 z m 1.031,-21.8359 -0.309,5.3554 c -1.754,-1.957 -6.8,-6.5937 -15.964,-6.5937 -8.961,0 -17.512,4.8398 -17.512,15.6562 0,4.6328 1.652,7.9297 4.019,10.2969 5.254,5.2539 12.051,6.2852 18.539,6.2852 h 10.196 v 1.0312 c 0,6.2852 -4.223,8.3438 -9.887,8.3438 -7.52,0 -13.184,-5.1524 -14.008,-5.9766 l -6.797,8.3438 c 1.235,1.3398 8.032,8.6523 21.629,8.6523 7.93,0 13.492,-1.8555 17.301,-5.7656 5.254,-5.2539 5.668,-11.5391 5.668,-20.086 V 20.6016 h -12.875" /><path
         id="path46"
         style="fill:#231f20;fill-opacity:1;fill-rule:nonzero;stroke:none"
         d="m 424.059,20.6016 v 28.0156 c 0,3.8086 -0.204,7.3125 -2.879,9.2695 -1.344,1.1328 -3.297,1.8555 -6.184,1.8555 -2.469,0 -5.457,-0.8242 -7.519,-2.8867 -2.989,-2.9883 -2.989,-7.8282 -2.989,-12.875 V 20.6016 H 390.07 v 49.539 h 13.598 c 0,0 0.207,-5.8672 0.207,-5.7656 0.309,0.4102 5.867,7.6211 16.375,7.6211 5.047,0 9.582,-1.3359 13.492,-5.2539 4.121,-4.1211 4.738,-10.0899 4.738,-15.6524 V 20.6016 h -14.421" /><path
         id="path48"
         style="fill:#231f20;fill-opacity:1;fill-rule:nonzero;stroke:none"
         d="m 477.063,42.4375 h -7.418 c -4.836,0 -11.532,-0.5195 -11.532,-6.9023 0,-4.0157 3.086,-6.0782 7.309,-6.0782 3.918,0 6.594,1.1328 8.551,2.8868 2.058,1.8515 3.09,4.5312 3.09,7.5195 z m 1.031,-21.8359 -0.309,5.3554 c -1.754,-1.957 -6.801,-6.5937 -15.969,-6.5937 -8.957,0 -17.507,4.8398 -17.507,15.6562 0,4.6328 1.652,7.9297 4.019,10.2969 5.254,5.2539 12.051,6.2852 18.539,6.2852 h 10.196 v 1.0312 c 0,6.2852 -4.223,8.3438 -9.887,8.3438 -7.52,0 -13.184,-5.1524 -14.008,-5.9766 l -6.801,8.3438 c 1.238,1.3398 8.035,8.6523 21.633,8.6523 7.93,0 13.492,-1.8555 17.301,-5.7656 5.254,-5.2539 5.668,-11.5391 5.668,-20.086 V 20.6016 h -12.875" /><path
         id="path50"
         style="fill:#231f20;fill-opacity:1;fill-rule:nonzero;stroke:none"
         d="m 524.402,32.2422 c 7.11,0 12.465,5.6641 12.465,14.3164 0,8.3398 -4.844,14.3164 -12.152,14.3164 -8.242,0 -12.258,-6.9062 -12.258,-14.4219 0,-8.2383 4.43,-14.2109 11.945,-14.2109 z M 545.309,7.41797 C 540.988,2.88672 533.57,0 523.785,0 507.512,0 501.023,7.62109 499.992,8.75391 l 7.727,8.75779 c 0.617,-0.6172 5.664,-5.9726 14.933,-5.9726 6.184,0 9.684,1.8515 11.637,4.3242 2.063,2.4726 2.371,5.5625 2.371,8.4453 v 4.2227 c -1.34,-1.4415 -6.691,-7.2071 -16.89,-7.2071 -9.786,0 -22.145,6.6953 -22.145,25.336 0,11.8398 7.52,25.3359 23.48,25.3359 9.786,0 14.938,-6.2813 16.172,-7.9297 l 0.207,6.0742 h 13.598 V 27.7031 c 0,-7.6133 -0.207,-14.4179 -5.773,-20.28513" /><path
         id="path52"
         style="fill:#231f20;fill-opacity:1;fill-rule:nonzero;stroke:none"
         d="m 583.684,61.4883 c -9.168,0 -11.227,-8.6524 -11.227,-10.711 h 22.145 c 0,2.2696 -1.547,10.711 -10.918,10.711 z M 572.352,41.0977 c 0,-4.4258 3.089,-11.0196 12.671,-11.0196 8.446,0 13.286,4.9414 14.418,6.0742 l 7.723,-7.4179 c -4.734,-5.3516 -11.945,-9.6758 -22.656,-9.6758 -18.953,0 -26.883,12.7656 -26.883,26.2578 0,13.082 8.133,26.6797 26.57,26.6797 4.532,0 11.332,-0.8242 16.895,-6.3867 6.797,-6.7969 7.519,-15.3438 7.519,-24.5117 h -36.257" /><path
         id="path54"
         style="fill:#231f20;fill-opacity:1;fill-rule:nonzero;stroke:none"
         d="m 676.75,20.6016 v 28.2226 c 0,3.8086 0,7.4102 -2.367,9.3711 -1.133,0.9258 -2.778,1.5469 -4.942,1.5469 -2.164,0 -4.328,-0.7227 -5.875,-2.1641 -2.675,-2.4765 -2.675,-6.1797 -2.675,-9.375 V 20.6016 h -14.418 v 28.0156 c 0,4.1172 0,7.6172 -2.473,9.5781 -1.027,0.9258 -2.578,1.5469 -4.945,1.5469 -2.063,0 -4.325,-0.7227 -5.867,-2.1641 -2.579,-2.4765 -2.579,-6.1797 -2.579,-9.375 V 20.6016 h -14.421 v 49.539 h 13.597 l 0.207,-5.5625 c 0.617,0.8282 5.254,7.418 14.625,7.418 9.988,0 13.387,-6.7969 13.805,-7.7227 0.512,0.7149 5.144,7.7227 15.961,7.7227 3.914,0 8.551,-1.2344 12.051,-4.8438 4.425,-4.7343 4.742,-11.2226 4.742,-17.2968 V 20.6016 H 676.75" /><path
         id="path56"
         style="fill:#231f20;fill-opacity:1;fill-rule:nonzero;stroke:none"
         d="m 723.242,61.4883 c -9.168,0 -11.222,-8.6524 -11.222,-10.711 h 22.14 c 0,2.2696 -1.547,10.711 -10.918,10.711 z M 711.91,41.0977 c 0,-4.4258 3.094,-11.0196 12.672,-11.0196 8.445,0 13.285,4.9414 14.418,6.0742 l 7.727,-7.4179 c -4.739,-5.3516 -11.95,-9.6758 -22.657,-9.6758 -18.957,0 -26.886,12.7656 -26.886,26.2578 0,13.082 8.136,26.6797 26.574,26.6797 4.531,0 11.332,-0.8242 16.894,-6.3867 6.797,-6.7969 7.52,-15.3438 7.52,-24.5117 H 711.91" /><path
         id="path58"
         style="fill:#231f20;fill-opacity:1;fill-rule:nonzero;stroke:none"
         d="m 789.223,20.6016 v 28.0156 c 0,3.8086 -0.207,7.3125 -2.883,9.2695 -1.344,1.1328 -3.297,1.8555 -6.184,1.8555 -2.468,0 -5.457,-0.8242 -7.515,-2.8867 -2.993,-2.9883 -2.993,-7.8282 -2.993,-12.875 V 20.6016 H 755.23 v 49.539 h 13.598 c 0,0 0.207,-5.8672 0.207,-5.7656 0.309,0.4102 5.867,7.6211 16.375,7.6211 5.047,0 9.582,-1.3359 13.492,-5.2539 4.121,-4.1211 4.739,-10.0899 4.739,-15.6524 V 20.6016 h -14.418" /><path
         id="path60"
         style="fill:#231f20;fill-opacity:1;fill-rule:nonzero;stroke:none"
         d="m 838.41,19.0586 c -5.664,0 -10.808,1.0312 -14.418,3.9102 -4.328,3.3984 -5.972,8.0312 -5.972,15.3476 v 20.293 h -10.61 v 11.5312 h 10.61 v 15.0391 h 14.418 V 70.1406 h 17.304 V 58.6094 H 832.438 V 42.4375 c 0,-2.9883 0,-6.1836 1.648,-8.4492 1.441,-1.8555 3.711,-2.8789 7.519,-2.8789 3.293,0 6.489,1.2344 7.004,1.4414 l 3.809,-10.4063 c -0.723,-0.4101 -5.867,-3.0859 -14.008,-3.0859" /></g></g></svg>